<svg xmlns="http://www.w3.org/2000/svg" xmlns:xlink="http://www.w3.org/1999/xlink" width="1080" zoomAndPan="magnify" viewBox="0 0 810 809.999993" height="1080" preserveAspectRatio="xMidYMid meet" version="1.2"><defs><clipPath id="090b611ac5"><path d="M 172.011719 177.949219 L 637.761719 177.949219 L 637.761719 631.699219 L 172.011719 631.699219 Z M 172.011719 177.949219 "/></clipPath></defs><g id="af71d9c1a7"><path style=" stroke:none;fill-rule:nonzero;fill:#fefefe;fill-opacity:1;" d="M 556.96875 329.625 C 561.277344 327.71875 536.652344 342.800781 556.96875 329.625 Z M 550.074219 351.53125 C 549.519531 353.347656 542.789062 351.054688 542.640625 351.039062 C 541.503906 350.910156 544.726562 347.886719 537.613281 342.769531 C 533.117188 339.535156 526.613281 334.644531 524.113281 332.859375 C 517.871094 328.40625 513.609375 326.523438 512.140625 325.175781 C 511.464844 324.554688 505.992188 322.039062 505.023438 321.5 C 503.085938 320.429688 491.785156 310.371094 490.992188 309.496094 C 489.835938 308.21875 504.175781 296.894531 515.050781 292 C 518.699219 290.359375 521.953125 286.71875 523.238281 286.308594 C 524.523438 285.902344 529.703125 284.070312 530.910156 283.679688 C 610.769531 257.738281 660.957031 313.628906 557.59375 350.074219 C 553.894531 351.378906 550.21875 351.054688 550.074219 351.53125 Z M 463.519531 296.6875 C 458.554688 293.269531 450.753906 287.613281 447.1875 285.140625 C 445.105469 283.695312 441.476562 282.203125 438.167969 279.90625 C 434.855469 277.609375 428.839844 273.671875 426.601562 272.113281 C 409.46875 270.058594 410.3125 275.296875 412.761719 260.289062 C 412.75 258.480469 411.339844 252.03125 411.066406 249.554688 C 409.796875 238.027344 419.011719 225.109375 424.535156 216.695312 C 426.851562 213.164062 432.59375 209.460938 435.957031 207.976562 C 438.265625 206.957031 443.167969 205.5625 446.066406 205.4375 C 450.714844 205.238281 455.625 207.53125 460.914062 210.710938 C 475.601562 219.535156 485.824219 241.722656 487.378906 263.632812 C 487.855469 270.328125 486.976562 281.511719 485.941406 283.328125 C 485.75 283.664062 483.914062 287.886719 481.625 289.585938 C 479.335938 291.289062 475.742188 293.972656 474.121094 295.550781 C 472.496094 297.128906 468.835938 298.710938 468.75 298.710938 C 468.660156 298.707031 464.738281 297.527344 463.519531 296.6875 Z M 463.519531 296.6875 "/><path style=" stroke:none;fill-rule:nonzero;fill:#ffeb5b;fill-opacity:1;" d="M 237.300781 592.0625 C 236.328125 591.105469 231.738281 583.691406 224.726562 576.269531 C 217.710938 568.84375 212.21875 563.316406 211.503906 562.621094 C 210.789062 561.929688 208.671875 555.316406 208.671875 555.058594 C 208.671875 554.800781 211.460938 549.992188 215.378906 543.019531 C 219.300781 536.042969 221.761719 527.453125 223.90625 523.589844 C 226.046875 519.726562 229.601562 514.429688 230.4375 513.515625 C 231.863281 511.964844 235.175781 508.785156 237.402344 508.578125 C 239.417969 508.386719 242.886719 509.875 244.65625 510.617188 C 248.96875 512.421875 251.320312 512.335938 255.085938 509.890625 C 257.03125 508.628906 257.863281 509.742188 266.988281 508.972656 C 272.007812 508.550781 278.773438 506.574219 281.6875 506.273438 C 286.957031 505.730469 287.546875 506.289062 288.757812 507.070312 C 289.429688 507.5 292.203125 506.46875 293.226562 506.8125 C 294.910156 507.382812 296.867188 512.621094 308.699219 525.042969 C 321.757812 538.757812 322.871094 539.039062 321.714844 541.671875 C 321.078125 543.121094 320.078125 547.941406 319.488281 549.328125 C 318.902344 550.714844 317.265625 553.507812 316.535156 555.191406 C 315.804688 556.875 315.199219 561.585938 314.171875 563.964844 C 313.140625 566.34375 311.074219 569.78125 309.242188 573.984375 C 307.40625 578.1875 308.285156 581.246094 308.140625 581.800781 C 307.992188 582.351562 303.859375 585.1875 303.707031 585.386719 C 303.550781 585.585938 302.378906 589.316406 301.777344 590.625 C 300.679688 593 299.292969 591.609375 292.046875 591.84375 C 288.0625 591.976562 281.589844 593.15625 276.980469 593.453125 C 272.375 593.75 263.558594 593.398438 258.402344 593.691406 C 253.246094 593.984375 247.574219 594.59375 246.132812 594.707031 C 243.507812 594.914062 239.066406 593.800781 237.300781 592.0625 Z M 275.53125 581.511719 C 274.578125 580.363281 277.367188 582.410156 276.648438 579.59375 C 276.351562 578.441406 276.820312 576.132812 277.066406 575.730469 C 277.277344 575.394531 280.453125 573.558594 282.082031 572.917969 C 290.039062 569.792969 292.863281 567.804688 294.246094 561.855469 C 295.414062 556.820312 293.753906 552.59375 287.527344 549.839844 C 284.367188 548.441406 276.855469 547.773438 275.042969 548.152344 C 270.574219 549.089844 263.875 547.210938 260.207031 545.011719 C 257.738281 543.535156 254.777344 540.503906 254.773438 538.296875 C 254.773438 536.714844 255.765625 535.445312 257.519531 533.863281 C 262.101562 529.722656 272.773438 526.519531 279.894531 529.867188 C 282.566406 531.125 282.710938 532.167969 284.074219 530.9375 C 285 530.097656 283.699219 530.9375 283.160156 529.664062 C 282.292969 527.621094 280.011719 527.914062 274.234375 526.980469 C 271.351562 526.515625 269.976562 524.550781 269.976562 522.238281 C 269.976562 520.164062 270.496094 520.457031 269.449219 519.511719 C 267.679688 517.914062 269.433594 517.894531 267.378906 519.75 C 265.691406 521.273438 266.097656 519.582031 266.882812 523.035156 C 267.128906 524.109375 266.140625 526.816406 264.671875 527.027344 C 261.988281 527.421875 258.433594 528.824219 255.863281 531.023438 C 252.546875 533.867188 253.078125 535.191406 253.078125 538.695312 C 253.074219 543.671875 252.902344 544.886719 258.421875 547.847656 C 262.566406 550.070312 265.378906 551.621094 273.175781 551.742188 C 280.421875 551.855469 284.683594 552.277344 287.617188 554.113281 C 293.832031 558.007812 288.367188 569.132812 276.550781 572.828125 C 273.289062 573.847656 264.226562 574.738281 260.777344 574.054688 C 256.503906 573.207031 252.835938 571.398438 252.835938 569.300781 C 252.835938 568.273438 250.699219 567.359375 249.460938 567.359375 C 247.742188 567.359375 248.460938 565.5 247.777344 566.949219 C 247.199219 568.183594 246.242188 566.167969 246.867188 567.992188 C 248.484375 572.695312 250.328125 573.863281 257.257812 575.996094 C 259.226562 576.601562 260.496094 576.933594 265.070312 577.109375 C 271.011719 577.335938 272.386719 577.53125 273.078125 579.820312 C 273.945312 582.679688 273.832031 582.1875 274.914062 582.664062 C 276.335938 583.285156 277.894531 584.347656 277.003906 583.28125 Z M 459.070312 548.269531 C 458.929688 548.132812 461.875 541.664062 462.621094 540.371094 C 463.769531 538.386719 464.171875 537.953125 464.167969 535.914062 C 464.164062 532.898438 462.792969 534.886719 460.402344 532.941406 C 458.011719 530.992188 459.835938 531.984375 456.542969 532.003906 C 451.515625 532.039062 451.273438 531.398438 448.738281 534.589844 C 447.480469 536.171875 444.199219 540.222656 443.804688 541.578125 C 443.535156 542.519531 438.402344 543.621094 431.429688 541.300781 C 425.027344 539.167969 408.617188 540.65625 414.40625 535.390625 C 417.667969 532.421875 418.394531 529.171875 418.671875 529.171875 C 420.027344 529.171875 433.84375 526.703125 439.324219 524.691406 C 473.105469 512.308594 505.613281 486.144531 527.984375 453.492188 C 541.019531 434.464844 549.792969 415.855469 552.847656 397.515625 C 553.25 395.082031 556.804688 390.859375 556.90625 390.769531 C 557.105469 390.589844 563.015625 394.152344 567.171875 399.742188 C 570.140625 403.734375 575.660156 414.21875 577.339844 418.460938 C 584.476562 436.511719 588.871094 462.164062 582.5625 480.167969 C 575.785156 499.507812 559.066406 514.613281 540.949219 526.761719 C 534.589844 531.023438 531.847656 532.488281 524.890625 535.929688 C 520.09375 538.300781 508.253906 542.632812 502.398438 544.242188 C 497.355469 545.628906 488.421875 547.371094 483.289062 547.882812 C 478.238281 548.386719 459.40625 548.59375 459.070312 548.269531 Z M 394.3125 516.109375 C 390.257812 515.785156 384.882812 516.253906 381.042969 513.777344 C 378.941406 512.421875 377.636719 507.917969 376.707031 507.371094 C 375.773438 506.824219 373.289062 504.339844 374.371094 502.691406 C 376.546875 499.378906 378.039062 497.820312 378.863281 497.691406 C 382.203125 497.171875 387.875 497.742188 393.332031 496.097656 C 410.769531 490.847656 427.585938 481.496094 444.746094 469.152344 C 461.609375 457.023438 478.667969 440.996094 489.625 425.683594 C 496.042969 416.710938 501.65625 406.972656 504.363281 401.085938 C 504.726562 400.292969 505.570312 396.480469 506.242188 395.011719 C 509.414062 388.054688 516.5625 371.402344 517.226562 366.285156 C 517.375 365.140625 520.007812 363.921875 520.191406 363.820312 C 520.464844 363.664062 529.347656 367.792969 536.753906 373.03125 C 537.925781 373.859375 539.816406 377.667969 539.8125 379.363281 C 539.808594 380.394531 539.035156 382.371094 538.820312 383.757812 C 538.601562 385.148438 538.523438 387.714844 538.40625 388.507812 C 537.890625 391.949219 538.746094 395.515625 538.054688 397.832031 C 536.070312 404.464844 534.542969 406.304688 533.097656 409.960938 C 532.242188 412.128906 529.789062 414.214844 529.566406 414.601562 C 529.34375 414.988281 528.359375 417.648438 527.859375 418.839844 C 526.222656 422.726562 521.519531 430.589844 518.117188 435.917969 C 503.300781 459.148438 481.941406 481.234375 458.496094 495.453125 C 450.425781 500.347656 445.644531 503.597656 437.96875 506.925781 C 422.425781 513.667969 406.683594 517.105469 394.3125 516.109375 Z M 354.417969 485.941406 C 351.347656 485.800781 346.847656 484.726562 345.863281 484.507812 C 344.875 484.292969 342.363281 484.113281 341.242188 484.105469 C 339 484.097656 336.5625 484.839844 326.332031 478.292969 C 323.609375 476.554688 314.609375 470.257812 308.246094 466.222656 C 294.445312 457.472656 294.09375 454.359375 294.09375 453.480469 C 294.09375 451.613281 298.371094 442.097656 300.992188 438.605469 C 301.664062 437.714844 304.945312 435.964844 305.890625 434.953125 C 308.410156 432.261719 308.972656 431.863281 308.984375 428.816406 C 309.003906 425.378906 307.617188 425.929688 304.574219 423.6875 C 301.160156 421.175781 300.839844 422.046875 296.960938 423.085938 C 292.882812 424.179688 292.242188 424.796875 287.25 431.503906 C 285.074219 434.425781 283.609375 438.351562 283.15625 439.988281 C 283.011719 440.507812 280.953125 444.074219 280.738281 444.074219 C 280.34375 444.074219 267.175781 438.535156 260.957031 434.4375 C 259.09375 433.210938 255.828125 431.566406 254.183594 430.550781 C 242.976562 423.617188 237.527344 421.40625 235.8125 419.488281 C 234.804688 418.363281 233.78125 417.101562 232.8125 416.449219 C 231.847656 415.796875 225.890625 414.6875 224.136719 413.511719 C 213.296875 406.226562 205.902344 391.386719 200.839844 378.960938 C 194.484375 363.359375 197.75 341.535156 204.953125 324.097656 C 211.386719 308.53125 223.066406 292.796875 237.382812 281.394531 C 252.796875 269.121094 269.503906 261.042969 289.640625 255.722656 C 299.375 253.152344 316.726562 246.058594 326.894531 246.515625 C 346.019531 247.375 360.078125 254.421875 374.71875 263.085938 C 376.957031 264.414062 380.433594 264.398438 381.980469 264.855469 C 383.628906 265.34375 388.140625 269.625 389.496094 270.585938 C 391.65625 272.117188 392.777344 274.378906 401.664062 280.53125 C 403.96875 282.125 411.023438 281.96875 413.988281 284.023438 C 421.347656 289.132812 426.136719 286.074219 431.359375 289.671875 C 433.769531 291.332031 436.058594 301.082031 438.363281 302.691406 C 440.664062 304.300781 446.410156 303.089844 448.246094 304.324219 C 450.082031 305.554688 449.96875 312.8125 450.875 313.484375 C 451.777344 314.160156 457.300781 308.445312 459.789062 310.148438 C 462.273438 311.855469 465.277344 316.425781 467.421875 317.914062 C 469.566406 319.398438 471.523438 327.730469 473.691406 329.226562 C 475.863281 330.71875 481.597656 330.339844 482.640625 333.878906 C 483.8125 337.851562 491.113281 334.488281 492.949219 335.738281 C 497.152344 338.609375 500.675781 347.660156 501.070312 348.125 C 501.445312 348.570312 502.769531 356.855469 501.5 363.570312 C 499.84375 372.363281 498.007812 380.621094 493.695312 389.777344 C 489.621094 398.414062 486.996094 402.1875 481.058594 410.632812 C 473.078125 421.976562 467.246094 434.382812 455.46875 445.011719 C 442.773438 456.46875 429.652344 461.472656 415.25 469.253906 C 399.84375 477.582031 377.800781 483.65625 364.394531 484.597656 C 362.640625 484.722656 359.863281 484.078125 359.425781 484.132812 C 358.984375 484.183594 357.488281 486.078125 354.417969 485.941406 Z M 301.3125 290.050781 C 308.765625 288.257812 306.304688 289.871094 306.304688 283.753906 C 306.304688 279.359375 309.242188 276.476562 305.21875 274.296875 C 302.492188 272.824219 300.5 277.132812 297.390625 277.128906 C 290.75 277.125 294.011719 274.484375 291.785156 279.609375 C 289.648438 284.53125 287.625 285.039062 292.355469 288 C 295.957031 290.253906 296.9375 291.101562 301.3125 290.050781 Z M 301.3125 290.050781 "/><g clip-rule="nonzero" clip-path="url(#090b611ac5)"><path style=" stroke:none;fill-rule:nonzero;fill:#010100;fill-opacity:1;" d="M 404.488281 631.375 C 403.71875 631.144531 402.003906 629.976562 400.675781 628.777344 C 398.636719 626.929688 397.734375 625.640625 394.820312 620.390625 C 389.585938 610.960938 387.050781 603.027344 385.523438 591.285156 C 384.335938 582.160156 384.769531 573.921875 387.003906 563.363281 C 388.324219 557.113281 390.699219 551.089844 392.996094 548.144531 C 393.421875 547.601562 393.65625 546.992188 393.519531 546.792969 C 393.382812 546.589844 392.160156 545.75 390.804688 544.921875 C 389.445312 544.09375 386.539062 542.257812 384.347656 540.84375 C 382.152344 539.429688 373 533.597656 364.007812 527.886719 C 355.015625 522.175781 345.683594 516.238281 343.269531 514.695312 C 340.855469 513.152344 332.511719 507.832031 324.726562 502.878906 C 316.9375 497.925781 308.503906 492.546875 305.980469 490.929688 C 300 487.09375 299.84375 487.609375 304.40625 496.082031 C 305.671875 498.421875 306.390625 500.292969 306.570312 501.683594 C 306.871094 504.023438 305.804688 502.800781 326.171875 524.152344 C 336.226562 534.691406 336.910156 535.519531 337.4375 537.738281 C 338.140625 540.691406 338.078125 540.863281 327.53125 565.164062 C 324.222656 572.792969 320.152344 582.199219 318.488281 586.0625 C 312.761719 599.363281 312.476562 599.835938 309.371094 601.195312 C 307.820312 601.875 307.109375 601.972656 305.15625 601.789062 C 303.082031 601.59375 302.632812 601.671875 301.347656 602.460938 C 298.667969 604.101562 301.855469 603.804688 257.128906 606.613281 C 238.234375 607.800781 238.488281 607.792969 236.683594 607.347656 C 234.769531 606.875 232.457031 605.207031 231.566406 603.652344 C 231.238281 603.082031 222.859375 594.066406 212.941406 583.621094 C 203.019531 573.171875 194.515625 564.167969 194.035156 563.613281 C 193.558594 563.054688 192.957031 561.757812 192.703125 560.726562 C 192.105469 558.320312 192.632812 556.453125 194.511719 554.316406 C 195.277344 553.449219 195.90625 552.609375 195.90625 552.460938 C 195.910156 552.117188 203.015625 539.265625 211.78125 523.730469 C 216.808594 514.828125 218.460938 511.5625 218.6875 510.109375 C 218.878906 508.855469 219.453125 507.550781 220.347656 506.324219 C 221.101562 505.296875 222.015625 504.011719 222.382812 503.464844 C 223.480469 501.832031 225.738281 500.746094 229.011719 500.277344 C 230.65625 500.042969 232.15625 499.726562 232.347656 499.574219 C 232.535156 499.421875 232.234375 498.027344 231.675781 496.472656 C 229.386719 490.085938 228.507812 485.78125 227.828125 477.609375 C 227.070312 468.554688 228.484375 458.199219 231.691406 449.296875 C 232.484375 447.101562 233.027344 445.050781 232.898438 444.746094 C 232.667969 444.207031 229.625 442.199219 222.570312 437.929688 C 220.554688 436.710938 218.078125 434.78125 216.613281 433.292969 C 215.234375 431.890625 212.210938 429.316406 209.894531 427.570312 C 198.636719 419.082031 189.492188 408.5 182.925781 396.371094 C 175.363281 382.390625 172.175781 369.578125 172.222656 353.316406 C 172.25 343.363281 173.1875 336.222656 175.589844 327.640625 C 183.757812 298.484375 203.953125 272.4375 232.949219 253.652344 C 244.683594 246.050781 261.390625 238.234375 272.878906 234.976562 C 274.085938 234.632812 275.453125 233.980469 275.914062 233.523438 C 276.378906 233.066406 277.613281 230.609375 278.664062 228.0625 C 280.5 223.601562 280.578125 223.253906 280.761719 218.746094 C 281.039062 212.003906 280.296875 209.542969 276.246094 203.792969 C 274.476562 201.28125 273.917969 199.53125 273.941406 196.589844 C 273.984375 191.789062 276.984375 187.535156 281.8125 185.433594 C 294.011719 180.121094 305.804688 190.820312 308.398438 209.558594 C 308.851562 212.808594 308.691406 216.082031 307.738281 223.039062 C 307.386719 225.621094 307.296875 227.464844 307.515625 227.664062 C 307.734375 227.859375 310.714844 227.820312 314.980469 227.5625 C 318.890625 227.328125 323.316406 227.242188 324.816406 227.378906 C 327.496094 227.617188 327.570312 227.597656 328.683594 226.519531 C 330.585938 224.683594 333.101562 219.554688 333.976562 215.734375 C 335.046875 211.070312 334.792969 205.25 333.269531 199.652344 C 332.429688 196.554688 332.183594 194.742188 332.148438 191.363281 C 332.105469 187.449219 332.195312 186.871094 333.085938 185.238281 C 337.097656 177.902344 347.402344 175.644531 354.367188 180.582031 C 358.203125 183.300781 359.558594 185.839844 361.027344 193.03125 C 362.570312 200.578125 362.710938 202.035156 362.460938 208.117188 C 362.144531 215.964844 360.867188 221.457031 357.839844 228.03125 C 357.128906 229.570312 356.636719 231.027344 356.738281 231.273438 C 356.84375 231.519531 358.519531 232.183594 360.46875 232.75 C 368.949219 235.21875 376.675781 238.328125 385.082031 242.652344 C 387.457031 243.875 390.238281 245.058594 391.261719 245.285156 C 392.285156 245.507812 393.605469 245.914062 394.199219 246.179688 C 396.269531 247.117188 396.511719 246.910156 396.511719 244.183594 C 396.511719 238.65625 397.941406 229.117188 399.570312 223.789062 C 405.113281 205.675781 416.597656 193.09375 431.640625 188.652344 C 455.511719 181.605469 481.722656 196.148438 496.796875 224.796875 C 503.402344 237.359375 506.96875 250.425781 507.746094 264.953125 C 507.90625 267.972656 508.15625 270.550781 508.296875 270.675781 C 508.4375 270.804688 510.488281 270.160156 512.851562 269.246094 C 533.46875 261.277344 556.226562 257.457031 576.5 258.554688 C 584.421875 258.984375 588.6875 259.550781 595.242188 261.046875 C 607.71875 263.894531 616.796875 268.34375 624.660156 275.457031 C 636.726562 286.371094 640.25 300.027344 635.15625 316.136719 C 634.390625 318.550781 630.886719 325.363281 628.769531 328.554688 C 624.433594 335.074219 614.9375 344.523438 607.082031 350.132812 C 598.199219 356.472656 585.363281 363.320312 575.773438 366.835938 C 571.714844 368.328125 571.75 368.269531 573.527344 370.199219 C 574.375 371.117188 575.355469 372.382812 575.710938 373.007812 C 576.0625 373.632812 576.925781 374.523438 577.628906 374.988281 C 584.148438 379.316406 591.808594 389.378906 598.542969 402.457031 C 610.652344 425.96875 613.027344 454 605.085938 479.597656 C 600.800781 493.421875 594.707031 505.105469 585.714844 516.757812 C 579.246094 525.144531 568.824219 535.289062 560.023438 541.777344 C 543.414062 554.015625 523.539062 562.890625 503.265625 567.117188 C 489.359375 570.019531 482.945312 570.648438 468.335938 570.539062 C 456.929688 570.457031 456.929688 570.457031 456.984375 573.730469 C 457.078125 579.484375 459.632812 587.339844 463.921875 595.070312 C 466.574219 599.84375 467.09375 601.324219 467.097656 604.101562 C 467.101562 608.269531 464.589844 611.90625 460.648438 613.4375 C 458.925781 614.105469 458.054688 614.222656 455.691406 614.085938 C 451.175781 613.820312 448.460938 612.035156 445.230469 607.195312 C 441.808594 602.066406 436.960938 590.347656 435.554688 583.804688 C 434.683594 579.753906 433.820312 570.28125 434.167969 568.605469 C 434.308594 567.933594 434.199219 567.230469 433.902344 566.875 C 433.625 566.542969 430.886719 565.519531 427.816406 564.597656 C 424.746094 563.675781 419.765625 561.96875 416.746094 560.800781 C 413.726562 559.632812 410.890625 558.679688 410.441406 558.679688 C 409.28125 558.679688 408.527344 560.566406 407.863281 565.121094 C 406.875 571.910156 406.738281 578.148438 407.429688 584.628906 C 408.675781 596.253906 410.675781 603.316406 414.679688 610.222656 C 419.476562 618.503906 419.441406 618.425781 419.433594 621.371094 C 419.421875 625.632812 417.605469 628.578125 413.707031 630.652344 C 412.316406 631.394531 411.335938 631.605469 408.921875 631.6875 C 407.25 631.742188 405.253906 631.601562 404.488281 631.371094 Z M 265.304688 591.269531 C 273.089844 590.78125 283.230469 590.136719 287.835938 589.835938 C 292.441406 589.53125 296.921875 589.328125 297.792969 589.386719 C 299.363281 589.484375 299.375 589.476562 300.242188 587.503906 C 300.722656 586.414062 301.304688 585.117188 301.539062 584.621094 C 301.769531 584.125 302.96875 581.371094 304.203125 578.496094 C 305.433594 575.625 307.621094 570.597656 309.054688 567.328125 C 310.492188 564.058594 312.25 560.003906 312.960938 558.320312 C 313.671875 556.636719 315.632812 552.042969 317.320312 548.109375 C 320.78125 540.050781 320.953125 541.253906 315.550781 535.617188 C 314.347656 534.359375 312.183594 532.101562 310.75 530.601562 C 309.3125 529.101562 304.863281 524.429688 300.859375 520.21875 C 296.855469 516.007812 293.351562 512.5625 293.078125 512.5625 C 292.800781 512.5625 291.328125 512.015625 289.804688 511.347656 C 287.113281 510.167969 286.953125 510.140625 284.046875 510.445312 C 282.402344 510.613281 276.839844 511.078125 271.683594 511.476562 C 257.929688 512.535156 258.425781 512.457031 255.8125 514.039062 C 252 516.355469 247.800781 516.585938 243.71875 514.703125 C 242.273438 514.039062 241.664062 513.96875 238.992188 514.183594 C 237.304688 514.320312 235.722656 514.542969 235.476562 514.679688 C 235.230469 514.816406 231.324219 521.570312 226.789062 529.6875 C 222.253906 537.804688 216.769531 547.589844 214.597656 551.429688 C 211.257812 557.339844 210.730469 558.503906 211.160156 558.996094 C 212.285156 560.292969 237.738281 587.164062 240.339844 589.796875 C 243.136719 592.628906 243.136719 592.628906 247.140625 592.394531 C 249.34375 592.261719 257.515625 591.757812 265.304688 591.269531 Z M 274.996094 585.269531 C 274.039062 584.855469 273.03125 582.902344 272.644531 580.714844 C 272.230469 578.371094 272.222656 578.367188 267.230469 578.457031 C 259.441406 578.597656 253.59375 577.011719 249.425781 573.625 C 247.085938 571.726562 245.363281 568.859375 245.363281 566.871094 C 245.363281 565.074219 245.851562 564.289062 247.3125 563.742188 C 249.199219 563.035156 250.46875 563.824219 252.128906 566.734375 C 253.746094 569.566406 255.121094 570.5 259.445312 571.699219 C 263.390625 572.796875 270.839844 572.535156 275.671875 571.128906 C 283.683594 568.800781 289.585938 564.097656 289.621094 560.015625 C 289.636719 558.386719 288.234375 556.421875 286.171875 555.179688 C 283.347656 553.476562 279.796875 552.855469 272.28125 552.75 C 266.628906 552.671875 265.53125 552.550781 262.679688 551.710938 C 250.523438 548.128906 246.164062 538.730469 253.011719 530.867188 C 254.695312 528.933594 258.519531 526.816406 262.394531 525.679688 C 265.773438 524.6875 265.773438 524.6875 265.519531 523.21875 C 265.039062 520.410156 265.152344 519.773438 266.316406 518.671875 C 267.640625 517.421875 269.164062 517.289062 270.542969 518.296875 C 271.335938 518.875 271.515625 519.40625 271.683594 521.628906 C 271.882812 524.273438 271.882812 524.273438 273.476562 524.554688 C 278.09375 525.375 280.496094 526.007812 282.734375 526.996094 C 286.539062 528.671875 287.691406 530.511719 286.210938 532.550781 C 285.164062 533.992188 283.519531 534.058594 280.789062 532.765625 C 271.992188 528.601562 259.300781 530.753906 256.722656 536.847656 C 255.058594 540.785156 258.859375 544.609375 266.101562 546.28125 C 268.171875 546.757812 269.648438 546.828125 273.476562 546.632812 C 277.824219 546.410156 278.621094 546.46875 282.132812 547.292969 C 286.953125 548.425781 289.308594 549.492188 292.113281 551.808594 C 294.992188 554.183594 296.136719 556.503906 296.125 559.941406 C 296.105469 566.03125 291.46875 571.21875 282.550781 575.132812 C 277.511719 577.347656 277.300781 577.601562 278.027344 580.65625 C 278.265625 581.667969 278.464844 582.863281 278.464844 583.308594 C 278.464844 584.960938 276.652344 585.984375 274.996094 585.269531 Z M 483.460938 544.078125 C 520.664062 539.945312 552.480469 520.273438 569.589844 490.820312 C 577.910156 476.496094 582.210938 458.269531 580.78125 443.386719 C 579.730469 432.421875 577.789062 424.847656 573.773438 416.003906 C 570.777344 409.414062 566.71875 402.914062 562.015625 397.171875 C 560.589844 395.433594 559.054688 393.414062 558.605469 392.691406 C 557.523438 390.949219 556.921875 390.828125 556.675781 392.292969 C 554.148438 407.148438 551.640625 415.691406 546.160156 428.074219 C 528.566406 467.859375 490.328125 505.828125 450.148438 523.402344 C 440.484375 527.632812 433.1875 530.113281 424.851562 532.007812 C 422.566406 532.527344 420.628906 533.132812 420.546875 533.347656 C 420.355469 533.871094 427.421875 536.949219 433.1875 538.851562 C 438.132812 540.488281 440.664062 540.832031 441.183594 539.945312 C 441.359375 539.648438 442.355469 537.824219 443.398438 535.886719 C 446.4375 530.238281 450.097656 527.863281 456.433594 527.425781 C 465.984375 526.765625 470.890625 536.269531 464.527344 543.101562 C 463.96875 543.703125 463.511719 544.289062 463.511719 544.410156 C 463.511719 544.867188 478.640625 544.613281 483.460938 544.078125 Z M 408.074219 511.8125 C 422.042969 510.183594 440.261719 503.40625 455.734375 494.082031 C 465.667969 488.097656 473.21875 482.488281 482.992188 473.839844 C 498.386719 460.21875 510.660156 445.367188 520.082031 428.964844 C 529.625 412.347656 534.675781 397.25 536.320312 380.421875 C 536.519531 378.347656 536.441406 377.621094 535.941406 376.925781 C 535.03125 375.675781 520.132812 365.421875 519.761719 365.792969 C 519.589844 365.964844 519.230469 367.402344 518.964844 368.988281 C 515.953125 386.90625 505.316406 409.59375 491.085938 428.4375 C 466.066406 461.566406 429.179688 488.058594 393.085938 498.820312 C 388.011719 500.332031 385.335938 500.984375 376.84375 502.789062 C 376.226562 502.917969 375.714844 503.1875 375.703125 503.382812 C 375.667969 503.90625 385.195312 509.9375 387.722656 510.992188 C 391.339844 512.503906 399.382812 512.828125 408.074219 511.8125 Z M 261.550781 497.449219 C 263.285156 497.261719 267.21875 496.933594 270.289062 496.714844 C 277.96875 496.175781 279.261719 495.992188 279.261719 495.433594 C 279.261719 495.171875 278.644531 492.996094 277.886719 490.601562 C 276.382812 485.839844 274.660156 477.863281 274.238281 473.722656 C 274.074219 472.132812 273.714844 470.816406 273.324219 470.402344 C 272.480469 469.503906 252.476562 456.742188 251.890625 456.726562 C 250.015625 456.6875 249.585938 476.171875 251.296875 483.773438 C 252.414062 488.742188 255.128906 495.652344 256.625 497.339844 C 257.105469 497.882812 257.488281 497.890625 261.550781 497.449219 Z M 369.589844 480.683594 C 388.292969 477.664062 408.847656 469.03125 427.71875 456.28125 C 437.6875 449.542969 450.644531 438.734375 458.78125 430.375 C 475.46875 413.222656 488.714844 392.53125 495.039062 373.726562 C 497.109375 367.578125 498.917969 359.484375 499.25 354.90625 C 499.515625 351.269531 499.515625 351.269531 496.566406 349.230469 C 494.945312 348.105469 489.042969 344.023438 483.449219 340.160156 C 477.855469 336.292969 471.84375 332.125 470.089844 330.898438 C 468.335938 329.675781 459.992188 323.890625 451.546875 318.046875 C 443.101562 312.203125 435.113281 306.675781 433.800781 305.761719 C 432.484375 304.851562 429.878906 303.046875 428.015625 301.753906 C 426.152344 300.464844 421.84375 297.480469 418.445312 295.125 C 415.046875 292.769531 410.722656 289.78125 408.835938 288.480469 C 406.953125 287.183594 402.734375 284.269531 399.464844 282.003906 C 396.195312 279.738281 391.992188 276.828125 390.128906 275.535156 C 388.265625 274.246094 386.113281 272.742188 385.34375 272.195312 C 384.578125 271.644531 382.78125 270.871094 381.355469 270.476562 C 379.929688 270.078125 377.507812 269.003906 375.972656 268.09375 C 360.71875 259.023438 346.683594 254.816406 327.40625 253.535156 C 322.296875 253.199219 312.875 253.460938 307.578125 254.089844 C 283.148438 256.984375 260.734375 265.902344 241.773438 280.273438 C 220.695312 296.246094 207.027344 316.582031 202.253906 339.0625 C 198.484375 356.792969 201.996094 375.664062 211.773438 390.242188 C 216.957031 397.972656 224.835938 405.664062 232.828125 410.804688 C 235.296875 412.394531 237.558594 414.214844 238.832031 415.636719 C 240.042969 416.992188 242.230469 418.773438 244.214844 420.023438 C 246.050781 421.183594 248.632812 422.804688 249.949219 423.632812 C 251.265625 424.457031 253.777344 426.054688 255.53125 427.183594 C 272.199219 437.910156 277.175781 440.996094 277.828125 441.019531 C 278.414062 441.039062 278.960938 440.265625 280.234375 437.617188 C 284.542969 428.671875 291.609375 420.390625 296.082031 419.046875 C 304.238281 416.597656 311.679688 421.6875 311.078125 429.296875 C 310.847656 432.171875 310.363281 433.066406 306.597656 437.566406 C 303.320312 441.480469 301.472656 444.597656 299.628906 449.320312 C 297.714844 454.210938 297.613281 454.019531 304.386719 458.320312 C 307.566406 460.339844 315.730469 465.539062 322.53125 469.875 C 339.199219 480.503906 338.457031 480.070312 340.382812 480.273438 C 341.3125 480.375 344.226562 480.710938 346.859375 481.019531 C 349.492188 481.332031 352.8125 481.625 354.238281 481.671875 C 358.214844 481.804688 365.601562 481.328125 369.589844 480.683594 Z M 296.554688 294.550781 C 294.074219 294.265625 290.792969 292.71875 289.203125 291.082031 C 285.699219 287.476562 284.820312 282.617188 286.957031 278.675781 C 288.40625 275.996094 290.433594 274.222656 293.617188 272.839844 C 296.011719 271.800781 296.53125 271.714844 300.398438 271.710938 C 304.296875 271.710938 304.730469 271.78125 306.722656 272.777344 C 311.066406 274.953125 313.324219 278.507812 313.292969 283.128906 C 313.242188 290.136719 305.304688 295.554688 296.554688 294.550781 Z M 554.511719 348.125 C 567.417969 343.957031 574.902344 340.6875 583.664062 335.398438 C 594.949219 328.578125 602.683594 321.355469 607.175781 313.445312 C 609.671875 309.042969 610.40625 306.605469 610.410156 302.667969 C 610.414062 299.765625 610.273438 299.132812 609.179688 297.019531 C 605.40625 289.730469 594.742188 284.785156 579.027344 283.039062 C 573.625 282.4375 560.953125 282.792969 554.039062 283.742188 C 534.332031 286.445312 514.558594 293.757812 499.675781 303.851562 C 495.351562 306.78125 493.308594 308.515625 493.515625 309.078125 C 493.675781 309.519531 498.464844 313.089844 508.820312 320.496094 C 511.425781 322.363281 517.957031 327.078125 523.332031 330.972656 C 539.832031 342.9375 549.273438 349.710938 549.441406 349.710938 C 549.527344 349.710938 551.8125 349 554.511719 348.125 Z M 471.117188 294.472656 C 472.675781 292.566406 478.199219 287.964844 482.65625 284.855469 C 483.84375 284.027344 483.992188 283.6875 484.472656 280.765625 C 487.34375 263.210938 483.175781 243.640625 473.238281 228.054688 C 466.476562 217.445312 457.222656 209.867188 448.730469 207.980469 C 438.914062 205.796875 430.75 210.019531 425.117188 220.1875 C 421.074219 227.492188 419.238281 235.703125 419.230469 246.546875 C 419.226562 250.34375 419.421875 254.234375 419.660156 255.195312 C 419.902344 256.152344 420.042969 258.390625 419.96875 260.171875 C 419.828125 263.753906 418.722656 262.699219 432.601562 272.238281 C 436.296875 274.773438 447.113281 282.277344 456.90625 289.09375 C 467.082031 296.179688 467.960938 296.75 468.628906 296.722656 C 468.996094 296.710938 470.113281 295.699219 471.117188 294.472656 Z M 471.117188 294.472656 "/></g></g></svg>