<?xml version="1.0" encoding="UTF-8" standalone="no"?>
<!-- Created with Inkscape (http://www.inkscape.org/) -->

<svg
   width="784.64081"
   height="765.33685"
   viewBox="0 0 784.64081 765.33685"
   version="1.1"
   id="svg1"
   xml:space="preserve"
   xmlns="http://www.w3.org/2000/svg"
   xmlns:svg="http://www.w3.org/2000/svg"><defs
     id="defs1" /><g
     id="layer1"
     transform="translate(-1010.3836,-162.17934)"><g
       id="g1"
       transform="translate(777.86503,-3.9754601)"><path
         style="display:inline;fill:#fefefe"
         d="m 881.47073,421.98712 c 7.26595,-3.21498 -34.26806,22.22549 0,0 z m -11.62958,36.94578 c -0.93332,3.06829 -12.28914,-0.79891 -12.53578,-0.82692 -1.91808,-0.2178 3.51264,-5.31463 -8.48396,-13.94977 -7.57919,-5.45549 -18.55295,-13.70437 -22.76651,-16.71121 -10.53325,-7.51666 -17.71592,-10.68951 -20.19715,-12.96392 -1.14098,-1.04588 -10.36828,-5.29169 -12.00205,-6.19587 -3.26839,-1.80886 -22.32982,-18.77324 -23.66616,-20.25093 -1.95024,-2.15653 22.23245,-21.25231 40.57603,-29.50648 6.15793,-2.77092 11.64353,-8.91289 13.80984,-9.59974 2.16631,-0.68686 10.9042,-3.77735 12.93901,-4.43832 134.70049,-43.75494 219.34888,50.51688 45.00809,111.9893 -6.24076,2.20049 -12.43664,1.64935 -12.68136,2.45386 z M 723.84841,366.43015 c -8.37598,-5.76113 -21.5324,-15.30258 -27.54338,-19.47504 -3.51468,-2.43968 -9.63437,-4.95471 -15.21894,-8.82822 -5.58456,-3.87352 -15.73011,-10.5166 -19.50885,-13.14277 -28.89237,-3.46997 -27.47443,5.37047 -23.34189,-19.94311 -0.0195,-3.05051 -2.39918,-13.93401 -2.85879,-18.11194 -2.13823,-19.43674 13.39904,-41.23139 22.71682,-55.42274 3.90904,-5.95362 13.59257,-12.20084 19.26646,-14.70627 3.89321,-1.71913 12.16554,-4.06877 17.05209,-4.27942 7.84173,-0.33804 16.12052,3.53402 25.04133,8.89287 24.77565,14.88306 42.02078,52.306 44.64032,89.26145 0.80076,11.29676 -0.68218,30.15955 -2.42585,33.22157 -0.32376,0.56856 -3.41683,7.6881 -7.27837,10.55739 -3.86155,2.86929 -9.92323,7.39483 -12.66059,10.05676 -2.73736,2.66193 -8.90928,5.33393 -9.05893,5.33041 -0.14964,-0.004 -6.76131,-1.99395 -8.82143,-3.41094 z"
         id="path8" /><path
         style="display:inline;fill:#e0d34a"
         d="m 342.28642,864.6375 c -1.6379,-1.61451 -9.37834,-14.1172 -21.20937,-26.6385 -11.83103,-12.5213 -21.09303,-21.84907 -22.3001,-23.01889 -1.20707,-1.16982 -4.77412,-12.32223 -4.77733,-12.75797 -0.003,-0.43575 4.70149,-8.54315 11.31382,-20.30696 6.61233,-11.76381 10.76391,-26.25279 14.37937,-32.77036 3.61545,-6.51757 9.60578,-15.45187 11.02132,-16.99087 2.40507,-2.61482 7.9907,-7.97669 11.74629,-8.33131 3.39775,-0.32084 9.24967,2.19144 12.23396,3.44055 7.27175,3.04366 11.24166,2.90061 17.5945,-1.22265 3.27783,-2.12744 4.68337,-0.25339 20.07368,-1.54707 8.46467,-0.71152 19.87938,-4.04944 24.79339,-4.55448 8.88972,-0.91363 9.8819,0.0254 11.92561,1.34011 1.1297,0.72673 5.8084,-1.01299 7.53397,-0.43028 2.84239,0.95984 6.14558,9.7938 26.10056,30.75096 22.02614,23.13233 23.90019,23.60084 21.95263,28.04428 -1.07115,2.44389 -2.76026,10.5743 -3.75357,12.91394 -0.99331,2.33965 -3.751,7.04687 -4.98295,9.88786 -1.23195,2.84099 -2.25412,10.78957 -3.98937,14.80038 -1.73525,4.01082 -5.21865,9.81313 -8.31351,16.90242 -3.09486,7.08929 -1.61225,12.24691 -1.85896,13.17925 -0.24671,0.93233 -7.21914,5.7167 -7.47751,6.05094 -0.25837,0.33423 -2.23855,6.62776 -3.25515,8.83198 -1.84835,4.00766 -4.19092,1.66509 -16.41053,2.06134 -6.72078,0.21793 -17.63927,2.21201 -25.40856,2.7134 -7.76929,0.50139 -22.64497,-0.0911 -31.33918,0.40131 -8.6942,0.49238 -18.26575,1.52044 -20.69749,1.71195 -4.42133,0.34819 -11.91753,-1.52586 -14.89552,-4.46133 z m 64.48667,-17.79502 c -1.61255,-1.93506 3.0937,1.5145 1.88074,-3.23279 -0.49806,-1.94932 0.28853,-5.83815 0.70869,-6.51642 0.35457,-0.5724 5.70899,-3.66371 8.45699,-4.74381 13.42118,-5.27522 18.18665,-8.62383 20.51716,-18.66151 1.97192,-8.49321 -0.82638,-15.62433 -11.33457,-20.26896 -5.32534,-2.35381 -17.99763,-3.48539 -21.05676,-2.84314 -7.53695,1.58234 -18.83199,-1.5906 -25.02283,-5.2952 -4.16506,-2.49237 -9.15794,-7.60582 -9.16115,-11.32559 -0.002,-2.67252 1.67397,-4.81453 4.62719,-7.48252 7.73264,-6.98581 25.7334,-12.38436 37.74301,-6.7377 4.50299,2.11721 4.75157,3.87817 7.04703,1.80446 1.56638,-1.4151 -0.62747,6e-5 -1.53998,-2.14632 -1.46542,-3.44692 -5.3078,-2.95658 -15.05761,-4.53069 -4.85901,-0.78449 -7.17803,-4.09737 -7.17803,-7.99683 0,-3.49967 0.8751,-3.0049 -0.88957,-4.59913 -2.98418,-2.69597 -0.027,-2.7302 -3.49353,0.40149 -2.84678,2.57184 -2.1626,-0.28064 -0.83544,5.54055 0.41279,1.8106 -1.24954,6.37629 -3.72786,6.7382 -4.52829,0.66125 -10.52463,3.02913 -14.85667,6.73953 -5.59449,4.79167 -4.70199,7.0268 -4.7027,12.93772 -10e-4,8.39425 -0.2919,10.44081 9.01567,15.43629 6.98767,3.75036 11.73748,6.36738 24.88362,6.57018 12.22305,0.18855 19.40903,0.90323 24.35671,4.00082 10.48712,6.56567 1.27127,25.33372 -18.66427,31.56725 -5.49651,1.71868 -20.78223,3.21783 -26.60441,2.06319 -7.20536,-1.42894 -13.39399,-4.48003 -13.39399,-8.01348 0,-1.7339 -3.60151,-3.27972 -5.69388,-3.27972 -2.89847,0 -1.68556,-3.13419 -2.8362,-0.68718 -0.97914,2.08226 -2.59357,-1.3169 -1.53773,1.75667 2.72543,7.93409 5.84087,9.90073 17.52655,13.50057 3.32037,1.02286 5.46017,1.58221 13.17649,1.87638 10.02305,0.38211 12.34207,0.7134 13.51058,4.57578 1.4585,4.82091 1.2676,3.99259 3.09608,4.79246 2.3938,1.04717 5.02434,2.83982 3.52538,1.04108 z m 309.57035,-56.06982 c -0.23833,-0.2297 4.7352,-11.14317 5.99094,-13.31964 1.93425,-3.3525 2.61343,-4.08038 2.60786,-7.5181 -0.008,-5.08726 -2.31946,-1.73809 -6.34743,-5.01873 -4.03216,-3.28404 -0.95519,-1.61156 -6.5124,-1.57627 -8.47928,0.0538 -8.88963,-1.02215 -13.16681,4.3585 -2.1216,2.66895 -7.65362,9.49887 -8.31664,11.7894 -0.45938,1.587 -9.11326,3.44097 -20.87433,-0.47137 -10.80228,-3.59339 -38.47646,-1.08251 -28.71382,-9.96724 5.5043,-5.00932 6.72483,-10.4889 7.19564,-10.4889 2.2839,0 25.58876,-4.1637 34.83459,-7.55395 56.97514,-20.89157 111.81107,-65.01675 149.54136,-120.09366 21.98541,-32.09327 36.78439,-63.4849 41.93361,-94.41655 0.68304,-4.10305 6.67918,-11.22774 6.84623,-11.37865 0.33529,-0.30291 10.3097,5.70926 17.31826,15.13565 5.00806,6.73575 14.31875,24.41999 17.14813,31.57493 12.03934,30.44519 19.4479,73.71241 8.80896,104.0771 -11.42851,32.61819 -39.63028,58.09786 -70.18693,78.58746 -10.72866,7.19405 -15.35203,9.66078 -27.08885,15.46488 -8.09046,4.00089 -28.0594,11.30642 -37.93291,14.02271 -8.50945,2.34103 -23.57897,5.27826 -32.23171,6.14146 -8.52428,0.85039 -40.28634,1.19785 -40.85375,0.65097 z M 607.11626,736.53083 c -6.83661,-0.54967 -15.90586,0.23954 -22.37733,-3.93398 -3.54553,-2.28656 -5.74516,-9.88325 -7.31752,-10.80792 -1.57236,-0.92467 -5.76218,-5.1123 -3.93552,-7.89535 3.6665,-5.58615 6.18727,-8.21347 7.57465,-8.4301 5.63276,-0.87955 15.19933,0.0842 24.40432,-2.68773 29.41172,-8.85696 57.7735,-24.62718 86.72191,-45.44743 28.44394,-20.45742 57.21268,-47.49132 75.69201,-73.31837 10.8289,-15.13466 20.29814,-31.55976 24.86003,-41.49063 0.61414,-1.33694 2.04015,-7.76975 3.16892,-10.24605 5.35017,-11.73722 17.40746,-39.82082 18.52971,-48.45211 0.2511,-1.93124 4.68814,-3.98565 5.00119,-4.16044 0.4619,-0.2579 15.44601,6.7031 27.93708,15.54123 1.97187,1.39521 5.16646,7.82021 5.15444,10.67454 -0.007,1.74048 -1.30698,5.07876 -1.67339,7.4184 -0.3664,2.33964 -0.49807,6.6729 -0.6975,8.00984 -0.86537,5.80118 0.57772,11.81752 -0.59159,15.72552 -3.34828,11.19036 -5.9266,14.28829 -8.3637,20.46044 -1.44307,3.65466 -5.58009,7.17594 -5.95413,7.82507 -0.37403,0.64912 -2.03284,5.14003 -2.87641,7.14544 -2.75974,6.56071 -10.69813,19.82379 -16.43157,28.81082 -24.99623,39.18097 -61.01702,76.43341 -100.56675,100.41816 -13.60832,8.25269 -21.67728,13.73304 -34.61991,19.3473 -26.2203,11.37384 -52.76863,17.17136 -73.63894,15.49335 z m -67.28678,-50.88924 c -5.17953,-0.2329 -12.7672,-2.04748 -14.43205,-2.41276 -1.66485,-0.36527 -5.8994,-0.67082 -7.79048,-0.67899 -3.78354,-0.0163 -7.89739,1.23606 -25.15074,-9.80386 -4.59086,-2.93757 -19.77562,-13.5574 -30.50464,-20.36037 -23.27622,-14.75878 -23.86955,-20.01109 -23.86955,-21.4899 0,-3.15022 7.21589,-19.20358 11.63494,-25.09137 1.12886,-1.50406 6.66838,-4.45832 8.26096,-6.16012 4.24683,-4.53806 5.19751,-5.21272 5.22139,-10.35375 0.0269,-5.796 -2.30688,-4.87052 -7.44097,-8.64881 -5.76181,-4.24022 -6.29959,-2.76972 -12.839,-1.01528 -6.8802,1.84586 -7.96153,2.88259 -16.38428,14.19962 -3.66768,4.92799 -6.13599,11.54927 -6.90259,14.30867 -0.24299,0.87464 -3.71887,6.89087 -4.08002,6.89087 -0.66444,0 -22.872,-9.33914 -33.36224,-16.25199 -3.14472,-2.0723 -8.65048,-4.8408 -11.42523,-6.55713 -18.9011,-11.69138 -28.0955,-15.42429 -30.98505,-18.65652 -1.69928,-1.9008 -3.42971,-4.02659 -5.06013,-5.1289 -1.63042,-1.10231 -11.67926,-2.96775 -14.63751,-4.95524 -18.28228,-12.28293 -30.75396,-37.31797 -39.29383,-58.27551 -10.72194,-26.31254 -5.20888,-63.12529 6.94031,-92.53441 10.8479,-26.25915 30.55012,-52.79697 54.69912,-72.02872 25.99523,-20.70205 54.17403,-34.32637 88.14383,-43.30052 16.41806,-4.33733 45.68529,-16.30081 62.83372,-15.53014 32.26095,1.44985 55.97218,13.33676 80.66353,27.95137 3.77847,2.23644 9.64145,2.21111 12.24799,2.98243 2.78326,0.8236 10.38918,8.04492 12.67632,9.66403 3.64643,2.58139 5.53823,6.40144 20.52693,16.77438 3.88465,2.68837 15.78748,2.42463 20.78202,5.89243 12.4143,8.61946 20.49321,3.45605 29.30133,9.52434 4.06962,2.80374 7.92737,19.24543 11.81201,21.96041 3.88465,2.71497 13.57362,0.67453 16.67217,2.75403 3.09854,2.07949 2.90682,14.31846 4.43286,15.45536 1.52604,1.13691 10.84301,-8.50175 15.03569,-5.62785 4.19267,2.87391 9.25681,10.58915 12.87327,13.0959 3.61646,2.50676 6.91947,16.55862 10.57929,19.07911 3.65982,2.52049 13.3338,1.87922 15.09281,7.85102 1.97295,6.69811 14.28697,1.02263 17.3859,3.13679 7.08968,4.83677 13.03006,20.10744 13.69716,20.89141 0.63528,0.74657 2.86595,14.72194 0.72891,26.05055 -2.79801,14.83245 -5.8902,28.76167 -13.16922,44.19962 -6.87112,14.57283 -11.2964,20.93544 -21.31338,35.17953 -13.45613,19.13452 -23.29541,40.05696 -43.16403,57.98656 -21.41236,19.32267 -43.53914,27.76385 -67.83447,40.89264 -25.98427,14.04148 -63.16296,24.29245 -85.77632,25.87843 -2.95973,0.20758 -7.64316,-0.87553 -8.3831,-0.78726 -0.73993,0.0883 -3.2641,3.28279 -8.44363,3.0499 z M 450.25833,355.23621 c 12.56864,-3.02282 8.41567,-0.30168 8.41567,-10.62165 0,-7.41409 4.9573,-12.2717 -1.83196,-15.94875 -4.59333,-2.48774 -7.95598,4.77926 -13.20104,4.77497 -11.19943,-0.009 -5.70189,-4.46162 -9.45467,4.18289 -3.60522,8.30463 -7.01466,9.1616 0.96029,14.15449 6.07541,3.80362 7.73037,5.23329 15.11171,3.45805 z"
         id="path7" /><path
         style="display:inline;fill:#010100"
         d="m 624.27932,930.94279 c -1.29488,-0.38523 -4.18637,-2.35606 -6.42552,-4.37963 -3.44455,-3.1129 -4.96524,-5.28987 -9.87953,-14.14326 -8.82745,-15.90316 -13.10355,-29.28923 -15.68166,-49.09045 -2.00447,-15.39542 -1.26738,-29.2895 2.4985,-47.09666 2.22918,-10.54081 6.23182,-20.70452 10.1097,-25.67113 0.71588,-0.91686 1.11234,-1.94368 0.88102,-2.28182 -0.23132,-0.33814 -2.29369,-1.75768 -4.58303,-3.15454 -2.28935,-1.39686 -7.18944,-4.49209 -10.88911,-6.87829 -3.69966,-2.38621 -19.13734,-12.22095 -34.30596,-21.85497 -15.16862,-9.63403 -30.909,-19.64688 -34.97863,-22.25077 -4.06963,-2.6039 -18.14516,-11.57129 -31.27896,-19.92754 -13.13381,-8.35625 -27.36069,-17.4263 -31.6153,-20.15566 -10.08797,-6.47149 -10.35471,-5.59815 -2.65369,8.68849 2.12981,3.95114 3.34553,7.10101 3.6473,9.44998 0.50713,3.94741 -1.29216,1.88499 33.06197,37.89715 16.96037,17.77894 18.11511,19.17143 19.00432,22.91721 1.18239,4.98084 1.07761,5.27092 -16.71064,46.26038 -5.58435,12.86803 -12.44869,28.72897 -15.25408,35.24654 -9.65719,22.43586 -10.13638,23.23121 -15.37793,25.52353 -2.61713,1.14457 -3.81683,1.31374 -7.11072,1.00271 -3.49585,-0.33009 -4.25202,-0.19661 -6.42175,1.1336 -4.51736,2.76949 0.85485,2.26496 -74.58636,7.00475 -31.86371,2.00192 -31.44033,1.98673 -34.48296,1.23722 -3.23059,-0.79582 -7.12921,-3.61156 -8.62949,-6.23258 -0.55116,-0.96288 -14.68952,-16.16793 -31.41858,-33.789 -16.72906,-17.62107 -31.07736,-32.80704 -31.88511,-33.74659 -0.80775,-0.93955 -1.82052,-3.12875 -2.25058,-4.86489 -1.00589,-4.06066 -0.11624,-7.21242 3.0523,-10.81341 1.29093,-1.46712 2.35008,-2.87741 2.35367,-3.13398 0.008,-0.57688 11.98778,-22.25435 26.77692,-48.45327 8.47704,-15.01706 11.26763,-20.52415 11.6444,-22.97966 0.32471,-2.11628 1.29152,-4.31573 2.8048,-6.38084 1.27011,-1.73327 2.81443,-3.90393 3.43183,-4.82371 1.85111,-2.75771 5.65743,-4.58794 11.17985,-5.3757 2.77475,-0.39582 5.30579,-0.93037 5.62455,-1.1879 0.31875,-0.25753 -0.18881,-2.61177 -1.1279,-5.23164 -3.86034,-10.76948 -5.34292,-18.03262 -6.49382,-31.81302 -1.27557,-15.27305 1.10905,-32.74365 6.51824,-47.75507 1.33626,-3.70833 2.2511,-7.16254 2.03299,-7.67602 -0.38578,-0.90825 -5.51977,-4.29774 -17.41682,-11.4987 -3.39986,-2.05784 -7.57518,-5.30776 -10.04631,-7.81969 -2.3257,-2.36409 -7.42655,-6.70949 -11.33522,-9.65644 -18.98692,-14.31525 -34.41489,-32.16414 -45.48564,-52.62317 -12.75795,-23.57698 -18.13227,-45.1909 -18.05704,-72.62001 0.046,-16.78521 1.62631,-28.82939 5.68143,-43.30165 13.77971,-49.1782 47.83775,-93.11237 96.7448,-124.79881 19.79184,-12.82296 47.97313,-26.0036 67.35399,-31.50207 2.03482,-0.57729 4.33839,-1.67896 5.11905,-2.44815 0.78066,-0.76919 2.86647,-4.91443 4.63513,-9.21165 3.09569,-7.52142 3.22784,-8.10816 3.53957,-15.71529 0.46602,-11.3722 -0.78638,-15.51991 -7.6144,-25.21743 -2.98418,-4.2383 -3.92886,-7.1927 -3.88628,-12.15397 0.0695,-8.09359 5.13077,-15.26908 13.27129,-18.81494 20.57673,-8.96285 40.46719,9.08517 44.84615,40.6921 0.7596,5.48266 0.48891,11.00366 -1.11483,22.73874 -0.59462,4.35102 -0.74537,7.4632 -0.3776,7.79545 0.36776,0.33224 5.39572,0.26474 12.5941,-0.16907 6.59007,-0.39716 14.0549,-0.53758 16.58851,-0.31203 4.5168,0.40209 4.64392,0.37395 6.52339,-1.4437 3.2067,-3.10125 7.45249,-11.75256 8.92963,-18.19521 1.80348,-7.866 1.37133,-17.68453 -1.1939,-27.1259 -1.41834,-5.2202 -1.83296,-8.28232 -1.89258,-13.97708 -0.0692,-6.60585 0.08,-7.57844 1.58385,-10.33088 6.7627,-12.3772 24.14635,-16.18239 35.88922,-7.85597 6.47098,4.58833 8.76004,8.86492 11.23981,20.99899 2.60185,12.73143 2.83479,15.18294 2.41782,25.44586 -0.53775,13.23591 -2.68806,22.49628 -7.79948,33.5886 -1.19554,2.59446 -2.03018,5.05511 -1.85475,5.46812 0.17543,0.41301 3.0058,1.53364 6.28971,2.4903 14.3026,4.16657 27.338,9.41011 41.51379,16.69908 4.01008,2.06192 8.70193,4.06015 10.42632,4.44052 1.72439,0.38036 3.95266,1.06183 4.95169,1.51437 3.49149,1.58155 3.90123,1.22794 3.90123,-3.36671 0,-9.32887 2.41412,-25.41267 5.16323,-34.39938 9.34624,-30.55249 28.71717,-51.77729 54.09167,-59.26844 40.25991,-11.88567 84.47473,12.64271 109.8945,60.96448 11.14587,21.18775 17.15709,43.2313 18.47,67.73069 0.27306,5.09549 0.69139,9.44062 0.92961,9.65583 0.23822,0.21521 3.69548,-0.86967 7.68279,-2.41085 34.77494,-13.4413 73.16049,-19.88951 107.35705,-18.03443 13.36156,0.72483 20.5567,1.682 31.61149,4.20527 21.04187,4.80282 36.35611,12.3032 49.62119,24.30273 20.35007,18.40858 26.29137,41.44281 17.69817,68.61537 -1.2879,4.07243 -7.1986,15.56208 -10.7729,20.94109 -7.30864,10.9988 -23.32555,26.9359 -36.57918,36.39691 -14.98245,10.69511 -36.63145,22.2471 -52.80428,28.17656 -6.85091,2.51176 -6.78874,2.41865 -3.78903,5.67408 1.4266,1.54823 3.08255,3.67751 3.67987,4.73174 0.59732,1.05423 2.05262,2.55829 3.234,3.34235 10.99642,7.2981 23.92001,24.2702 35.28019,46.33221 20.4198,39.65624 24.43053,86.93757 11.0369,130.11063 -7.23357,23.31667 -17.50894,43.0281 -32.67303,62.67727 -10.91685,14.14572 -28.49221,31.2596 -43.3392,42.20125 -28.01243,20.64404 -61.53202,35.61053 -95.73079,42.74376 -23.45474,4.89222 -34.27206,5.95199 -58.91665,5.77204 -19.23671,-0.14047 -19.23671,-0.14047 -19.14653,5.38137 0.15852,9.70705 4.46692,22.95399 11.70588,35.9918 4.4721,8.05453 5.34798,10.54744 5.35317,15.23614 0.008,7.02573 -4.23026,13.16127 -10.87467,15.74356 -2.90993,1.13091 -4.37846,1.32261 -8.36256,1.09162 -7.62057,-0.44182 -12.19649,-3.45478 -17.64272,-11.61663 -5.77281,-8.65128 -13.95109,-28.42098 -16.3223,-39.45659 -1.4679,-6.83158 -2.92622,-22.80874 -2.3397,-25.63324 0.23603,-1.13662 0.054,-2.32273 -0.44867,-2.92287 -0.46524,-0.55551 -5.08369,-2.28265 -10.26322,-3.8381 -5.17953,-1.55544 -13.58358,-4.4376 -18.67567,-6.40478 -5.09209,-1.96718 -9.87505,-3.5767 -10.62881,-3.5767 -1.95688,0 -3.22992,3.17961 -4.34944,10.86332 -1.66835,11.45062 -1.90232,21.9738 -0.73157,32.90369 2.10037,19.60881 5.47375,31.52219 12.22432,43.17131 8.09277,13.96526 8.03644,13.83323 8.02127,18.80129 -0.0219,7.19047 -3.08449,12.15324 -9.66118,15.65572 -2.34613,1.24946 -3.99504,1.60545 -8.07199,1.74269 -2.81795,0.0949 -6.18301,-0.14271 -7.47789,-0.52793 z M 389.51891,863.30103 c 13.1338,-0.82139 30.23634,-1.91099 38.00563,-2.42134 7.76929,-0.51034 15.32568,-0.85159 16.79198,-0.75831 2.65273,0.16874 2.67331,0.15295 4.13732,-3.17276 0.80923,-1.83829 1.791,-4.02601 2.18169,-4.8616 0.3907,-0.83558 2.41276,-5.48448 4.49347,-10.33088 2.08071,-4.8464 5.76555,-13.32379 8.18855,-18.83866 2.42299,-5.51487 5.38604,-12.35148 6.58456,-15.19247 1.19851,-2.841 4.50853,-10.59053 7.3556,-17.22118 5.83682,-13.59361 6.12391,-11.56552 -2.98289,-21.07181 -2.03482,-2.12408 -5.68136,-5.93097 -8.10344,-8.45977 -2.42208,-2.52879 -9.9287,-10.40892 -16.68138,-17.5114 -6.75268,-7.10248 -12.65934,-12.9136 -13.12591,-12.9136 -0.46657,0 -2.94904,-0.92239 -5.5166,-2.04976 -4.53833,-1.9927 -4.80873,-2.03516 -9.71328,-1.52528 -2.77475,0.28846 -12.15844,1.0725 -20.85264,1.74231 -23.19762,1.78717 -22.36302,1.65233 -26.76858,4.32488 -6.43255,3.90218 -13.51472,4.28962 -20.40048,1.11605 -2.43479,-1.12218 -3.46593,-1.23532 -7.97326,-0.87486 -2.84726,0.2277 -5.51461,0.60259 -5.92746,0.83311 -0.41285,0.23051 -7.00749,11.62316 -14.65475,25.317 -7.64727,13.69385 -16.89914,30.19705 -20.55973,36.6738 -5.63258,9.96584 -6.52467,11.92705 -5.80379,12.75926 1.89789,2.19097 44.83464,47.51295 49.21809,51.95227 4.71883,4.77895 4.71883,4.77895 11.47324,4.37869 3.71493,-0.22014 17.50026,-1.0723 30.63406,-1.89369 z m 16.35099,-10.12289 c -1.61292,-0.69763 -3.31518,-3.99327 -3.96819,-7.68259 -0.69973,-3.95324 -0.70821,-3.95677 -9.13108,-3.80471 -13.13601,0.23715 -23.00096,-2.44044 -30.03202,-8.15142 -3.94527,-3.20455 -6.853,-8.03687 -6.853,-11.38891 0,-3.03636 0.82365,-4.35965 3.28737,-5.2816 3.1855,-1.19203 5.32761,0.13772 8.12759,5.04534 2.72538,4.77687 5.04498,6.3521 12.33838,8.37893 6.65775,1.85019 19.21937,1.40875 27.36928,-0.9618 13.51561,-3.93127 23.46855,-11.86028 23.52853,-18.74401 0.024,-2.74909 -2.33912,-6.06194 -5.8211,-8.16074 -4.7627,-2.87076 -10.75229,-3.91806 -23.42509,-4.09593 -9.53316,-0.13381 -11.38343,-0.33404 -16.19673,-1.75272 -20.50571,-6.0439 -27.85877,-21.89794 -16.30737,-35.16055 2.84046,-3.26124 9.29317,-6.82754 15.82843,-8.74811 5.69545,-1.67377 5.69545,-1.67377 5.27132,-4.14976 -0.81201,-4.74026 -0.62371,-5.8139 1.3453,-7.67061 2.23106,-2.10381 4.80108,-2.33224 7.12569,-0.63336 1.33432,0.97515 1.64176,1.87321 1.92436,5.62122 0.33633,4.46065 0.33633,4.46065 3.02699,4.93842 7.78217,1.38185 11.83566,2.45016 15.61392,4.11512 6.41602,2.82733 8.35632,5.92785 5.86193,9.36709 -1.76621,2.43524 -4.53841,2.5462 -9.14239,0.36594 -14.83808,-7.02671 -36.24978,-3.39731 -40.59476,6.88104 -2.80899,6.64486 3.60217,13.09565 15.81551,15.91329 3.49776,0.80694 5.98358,0.92541 12.44432,0.59306 7.32999,-0.37706 8.67452,-0.27419 14.60036,1.11698 8.12712,1.90796 12.09939,3.70455 16.83392,7.61373 4.85594,4.00942 6.78289,7.91771 6.76364,13.71817 -0.0341,10.27 -7.85434,19.02396 -22.89162,25.62478 -8.50281,3.73243 -8.85571,4.16308 -7.63283,9.31447 0.40498,1.70596 0.73633,3.71969 0.73633,4.47494 0,2.78765 -3.05278,4.51286 -5.84699,3.3043 z m 351.61736,-69.47692 c 62.74639,-6.96583 116.41159,-40.15062 145.27142,-89.83105 14.03291,-24.15679 21.28716,-54.9007 18.87683,-80.00111 -1.77607,-18.49546 -5.04599,-31.26935 -11.82269,-46.18512 -5.05032,-11.11593 -11.89521,-22.08004 -19.833,-31.76837 -2.40338,-2.93341 -4.99119,-6.33375 -5.75069,-7.55631 -1.82418,-2.93637 -2.83602,-3.14471 -3.25667,-0.67054 -4.25997,25.05627 -8.49288,39.46349 -17.73203,60.35314 -29.67977,67.10572 -94.17533,131.14257 -161.94086,160.78909 -16.30444,7.13297 -28.6097,11.31827 -42.66848,14.51251 -3.85946,0.87689 -7.12816,1.89509 -7.26378,2.26267 -0.32424,0.87876 11.59767,6.06955 21.32323,9.28412 8.33834,2.75605 12.60623,3.33897 13.48707,1.84211 0.29502,-0.50135 1.97385,-3.5806 3.73073,-6.84278 5.13205,-9.5292 11.3056,-13.53752 21.98793,-14.27616 16.10852,-1.11385 24.38534,14.9184 13.65143,26.44289 -0.9426,1.01202 -1.71382,2.00566 -1.71382,2.20809 0,0.76654 25.52303,0.33942 33.65338,-0.56318 z M 630.33332,729.28167 c 23.55691,-2.74678 54.28611,-14.17953 80.38358,-29.9066 16.7533,-10.09601 29.49337,-19.55687 45.97936,-34.14458 25.96187,-22.9725 46.66627,-48.02276 62.55652,-75.68717 16.09885,-28.02756 24.61712,-53.4952 27.38695,-81.88051 0.34144,-3.49913 0.20868,-4.72319 -0.63903,-5.89201 -1.53322,-2.11399 -26.66279,-19.4048 -27.28967,-18.7771 -0.28779,0.28817 -0.89093,2.71166 -1.34031,5.38554 -5.07964,30.22441 -23.02415,68.48725 -47.02479,100.27031 -42.19736,55.88023 -104.41654,100.56518 -165.29808,118.71477 -8.55935,2.55165 -13.07322,3.65495 -27.39168,6.69516 -1.03997,0.22081 -1.90758,0.67096 -1.92803,1.00031 -0.055,0.88595 16.01,11.05756 20.27711,12.83853 6.10138,2.54655 19.6647,3.09313 34.32807,1.38335 z M 383.18979,705.05558 c 2.92607,-0.31681 9.55792,-0.87357 14.73745,-1.23725 12.95554,-0.90966 15.13498,-1.22137 15.13498,-2.16468 0,-0.44079 -1.04326,-4.10724 -2.31836,-8.14767 -2.53467,-8.03164 -5.44325,-21.48601 -6.15511,-28.47204 -0.27337,-2.68276 -0.88236,-4.89846 -1.53895,-5.5992 -1.42279,-1.51846 -35.16302,-23.04206 -36.15491,-23.06398 -3.16329,-0.0699 -3.88435,32.79833 -1.00072,45.61641 1.88573,8.38233 6.46372,20.03617 8.98986,22.8848 0.80826,0.91145 1.45195,0.92568 8.30576,0.18361 z m 182.23126,-28.27863 c 31.54251,-5.09621 66.21446,-19.65316 98.04297,-41.16314 16.81234,-11.36192 38.67152,-29.59192 52.39526,-43.6963 28.14705,-28.92774 50.48724,-63.83086 61.15329,-95.54265 3.48985,-10.37587 6.54454,-24.02675 7.10459,-31.74925 0.44459,-6.13036 0.44459,-6.13036 -4.52621,-9.57274 -2.73393,-1.89331 -12.68963,-8.77809 -22.12377,-15.29952 -9.43414,-6.52143 -19.57458,-13.54868 -22.53431,-15.6161 -2.95973,-2.06742 -17.03527,-11.82263 -31.27897,-21.67824 -14.2437,-9.8556 -27.71383,-19.17955 -29.93363,-20.71988 -2.2198,-1.54033 -6.60894,-4.58218 -9.75366,-6.75966 -3.14471,-2.17748 -10.4095,-7.2099 -16.14398,-11.18315 -5.73448,-3.97325 -13.0267,-9.01594 -16.20494,-11.20596 -3.17824,-2.19003 -10.29168,-7.10795 -15.80765,-10.92871 -5.51597,-3.82076 -12.60198,-8.72847 -15.74669,-10.90601 -3.14471,-2.17755 -6.77711,-4.71485 -8.07199,-5.63846 -1.29488,-0.92362 -4.32188,-2.22784 -6.72666,-2.89828 -2.40478,-0.67044 -6.49123,-2.479 -9.08099,-4.01902 -25.72475,-15.29742 -49.39951,-22.39282 -81.91649,-24.55061 -8.61599,-0.57175 -24.50773,-0.13008 -33.44572,0.92953 -41.20377,4.88477 -79.01018,19.92898 -110.98988,44.16591 -35.5492,26.9422 -58.60493,61.23937 -66.66003,99.1619 -6.3521,29.90502 -0.43,61.73578 16.06049,86.32366 8.74398,13.03755 22.02849,26.01262 35.51147,34.68425 4.16218,2.67693 7.97816,5.74729 10.12476,8.14645 2.04524,2.28587 5.73503,5.29377 9.08099,7.40279 3.09979,1.95385 7.45218,4.69132 9.67197,6.08328 2.2198,1.39195 6.4576,4.08875 9.41733,5.99287 28.11483,18.08751 36.50698,23.29496 37.60395,23.33379 0.98924,0.035 1.91229,-1.26814 4.06359,-5.73704 7.26467,-15.09083 19.18464,-29.05975 26.72906,-31.32359 13.75642,-4.12785 26.30611,4.45217 25.28937,17.28994 -0.38417,4.85074 -1.20172,6.36031 -7.55182,13.94415 -5.53296,6.60794 -8.64804,11.86028 -11.7591,19.82704 -3.22302,8.25347 -3.39529,7.92768 8.02652,15.17974 5.36451,3.4061 19.13735,12.17632 30.6063,19.48939 28.11548,17.92755 26.86025,17.19624 30.10997,17.54247 1.56787,0.16705 6.48306,0.73361 10.92266,1.25904 4.43959,0.52543 10.03953,1.02031 12.44431,1.09974 6.70878,0.22158 19.1717,-0.58094 25.89764,-1.66763 z M 442.22956,362.82691 c -4.18139,-0.47903 -9.71424,-3.09073 -12.39826,-5.85242 -5.90864,-6.07962 -7.39377,-14.27697 -3.79129,-20.92641 2.4459,-4.51462 5.86509,-7.50846 11.23818,-9.84014 4.03698,-1.75186 4.91405,-1.89777 11.43532,-1.90239 6.57714,-0.005 7.3108,0.11899 10.6654,1.7976 7.32819,3.66698 11.13521,9.66421 11.0822,17.4579 -0.0804,11.81838 -13.47152,20.9568 -28.23155,19.26586 z m 435.09637,90.36488 c 21.77142,-7.0316 34.39448,-12.54318 49.16967,-21.46883 19.03568,-11.4994 32.0836,-23.68151 39.65671,-37.02525 4.21374,-7.42455 5.44803,-11.53768 5.45527,-18.17904 0.005,-4.89771 -0.2262,-5.96155 -2.07381,-9.52848 -6.36739,-12.29264 -24.35176,-20.6321 -50.85538,-23.58196 -9.11697,-1.01473 -30.48516,-0.41313 -42.14934,1.18665 -33.24083,4.55911 -66.59344,16.89591 -91.69419,33.91678 -7.29588,4.94736 -10.7394,7.86982 -10.39204,8.81957 0.2714,0.74207 8.34753,6.76768 25.81315,19.25923 4.39862,3.14593 15.41363,11.09685 24.4778,17.66871 27.83099,20.17849 43.7554,31.60818 44.03807,31.60818 0.14849,0 3.99783,-1.204 8.55409,-2.67556 z M 736.66272,362.69505 c 2.63385,-3.21668 11.94821,-10.97913 19.46163,-16.21904 2.00453,-1.39797 2.25953,-1.9719 3.06627,-6.90126 4.84581,-29.60923 -2.18857,-62.61487 -18.94833,-88.90634 -11.40776,-17.89566 -27.01186,-30.6767 -41.34002,-33.8609 -16.55716,-3.67955 -30.32744,3.44061 -39.82476,20.59208 -6.82058,12.31748 -9.9145,26.16881 -9.93105,44.46087 -0.006,6.40482 0.3218,12.96797 0.72797,14.58477 0.40618,1.61681 0.64041,5.39384 0.52052,8.3934 -0.24156,6.0435 -2.10393,4.26474 21.30732,20.3508 6.23106,4.28142 24.47245,16.93434 40.99531,28.43591 17.16275,11.94699 18.64314,12.91054 19.77014,12.86783 0.6159,-0.0233 2.50365,-1.7325 4.195,-3.79812 z"
         id="path1" /></g></g></svg>
